<svg width="162" height="39" viewBox="0 0 162 39" fill="none" xmlns="http://www.w3.org/2000/svg">
<path d="M14.1932 38.4943C11.4545 38.4943 9.09091 37.9545 7.10227 36.875C5.125 35.7841 3.60227 34.233 2.53409 32.2216C1.47727 30.1989 0.948864 27.7955 0.948864 25.0114C0.948864 22.3068 1.48295 19.9432 2.55114 17.9205C3.61932 15.8864 5.125 14.3068 7.06818 13.1818C9.01136 12.0455 11.3011 11.4773 13.9375 11.4773C15.8011 11.4773 17.5057 11.767 19.0511 12.3466C20.5966 12.9261 21.9318 13.7841 23.0568 14.9205C24.1818 16.0568 25.0568 17.4602 25.6818 19.1307C26.3068 20.7898 26.6193 22.6932 26.6193 24.8409V26.9205H3.86364V22.0795H18.8636C18.8523 21.1932 18.642 20.4034 18.233 19.7102C17.8239 19.017 17.2614 18.4773 16.5455 18.0909C15.8409 17.6932 15.0284 17.4943 14.108 17.4943C13.1761 17.4943 12.3409 17.7045 11.6023 18.125C10.8636 18.5341 10.2784 19.0966 9.84659 19.8125C9.41477 20.517 9.1875 21.3182 9.16477 22.2159V27.142C9.16477 28.2102 9.375 29.1477 9.79545 29.9545C10.2159 30.75 10.8125 31.3693 11.5852 31.8125C12.358 32.2557 13.2784 32.4773 14.3466 32.4773C15.0852 32.4773 15.7557 32.375 16.358 32.1705C16.9602 31.9659 17.4773 31.6648 17.9091 31.267C18.3409 30.8693 18.6648 30.3807 18.8807 29.8011L26.5341 30.0227C26.2159 31.7386 25.517 33.233 24.4375 34.5057C23.3693 35.767 21.9659 36.75 20.2273 37.4545C18.4886 38.1477 16.4773 38.4943 14.1932 38.4943ZM45.6548 11.8182V17.9545H29.1378V11.8182H45.6548ZM32.598 5.54545H40.9332V29.767C40.9332 30.2784 41.0128 30.6932 41.1719 31.0114C41.3423 31.3182 41.5866 31.5398 41.9048 31.6761C42.223 31.8011 42.6037 31.8636 43.0469 31.8636C43.3651 31.8636 43.7003 31.8352 44.0526 31.7784C44.4162 31.7102 44.6889 31.6534 44.8707 31.608L46.1321 37.625C45.7344 37.7386 45.1719 37.8807 44.4446 38.0511C43.7287 38.2216 42.8707 38.3295 41.8707 38.375C39.9162 38.4659 38.2401 38.2386 36.8423 37.6932C35.456 37.1364 34.3935 36.2727 33.6548 35.1023C32.9276 33.9318 32.5753 32.4602 32.598 30.6875V5.54545ZM49.9077 38V11.8182H58.2429V38H49.9077ZM54.0838 8.76705C52.9134 8.76705 51.9077 8.38068 51.0668 7.60795C50.2259 6.82386 49.8054 5.88068 49.8054 4.77841C49.8054 3.6875 50.2259 2.75568 51.0668 1.98295C51.9077 1.19886 52.9134 0.806816 54.0838 0.806816C55.2656 0.806816 56.2713 1.19886 57.1009 1.98295C57.9418 2.75568 58.3622 3.6875 58.3622 4.77841C58.3622 5.88068 57.9418 6.82386 57.1009 7.60795C56.2713 8.38068 55.2656 8.76705 54.0838 8.76705ZM63.5483 38V11.8182H71.4744V16.625H71.7642C72.3097 15.0341 73.2301 13.7784 74.5256 12.858C75.821 11.9375 77.3665 11.4773 79.1619 11.4773C80.9801 11.4773 82.5369 11.9432 83.8324 12.875C85.1278 13.8068 85.9517 15.0568 86.304 16.625H86.5767C87.0653 15.0682 88.0199 13.8239 89.4403 12.892C90.8608 11.9489 92.5369 11.4773 94.4688 11.4773C96.946 11.4773 98.9574 12.2727 100.503 13.8636C102.048 15.4432 102.821 17.6136 102.821 20.375V38H94.4858V22.2841C94.4858 20.9773 94.1506 19.983 93.4801 19.3011C92.8097 18.608 91.9403 18.2614 90.8722 18.2614C89.7244 18.2614 88.821 18.6364 88.1619 19.3864C87.5142 20.125 87.1903 21.1193 87.1903 22.3693V38H79.179V22.1989C79.179 20.983 78.8494 20.0227 78.1903 19.3182C77.5313 18.6136 76.6619 18.2614 75.5824 18.2614C74.8551 18.2614 74.2131 18.4375 73.6562 18.7898C73.0994 19.1307 72.6619 19.6193 72.3438 20.2557C72.0369 20.892 71.8835 21.642 71.8835 22.5057V38H63.5483ZM115.366 38.4432C113.696 38.4432 112.213 38.1648 110.918 37.608C109.634 37.0398 108.616 36.1875 107.866 35.0511C107.128 33.9034 106.759 32.4659 106.759 30.7386C106.759 29.2841 107.014 28.0568 107.526 27.0568C108.037 26.0568 108.741 25.2443 109.639 24.6193C110.537 23.9943 111.571 23.5227 112.741 23.2045C113.912 22.875 115.162 22.6534 116.491 22.5398C117.98 22.4034 119.179 22.2614 120.088 22.1136C120.997 21.9545 121.656 21.733 122.065 21.4489C122.486 21.1534 122.696 20.7386 122.696 20.2045V20.1193C122.696 19.2443 122.395 18.5682 121.793 18.0909C121.19 17.6136 120.378 17.375 119.355 17.375C118.253 17.375 117.366 17.6136 116.696 18.0909C116.026 18.5682 115.599 19.2273 115.418 20.0682L107.73 19.7955C107.957 18.2045 108.543 16.7841 109.486 15.5341C110.44 14.2727 111.747 13.2841 113.406 12.5682C115.077 11.8409 117.082 11.4773 119.423 11.4773C121.094 11.4773 122.634 11.6761 124.043 12.0739C125.452 12.4602 126.679 13.0284 127.724 13.7784C128.77 14.517 129.577 15.4261 130.145 16.5057C130.724 17.5852 131.014 18.8182 131.014 20.2045V38H123.173V34.3523H122.969C122.503 35.2386 121.906 35.9886 121.179 36.6023C120.463 37.2159 119.616 37.6761 118.639 37.983C117.673 38.2898 116.582 38.4432 115.366 38.4432ZM117.94 32.9886C118.838 32.9886 119.645 32.8068 120.361 32.4432C121.088 32.0795 121.668 31.5795 122.099 30.9432C122.531 30.2955 122.747 29.5455 122.747 28.6932V26.2045C122.509 26.3295 122.219 26.4432 121.878 26.5455C121.548 26.6477 121.185 26.7443 120.787 26.8352C120.389 26.9261 119.98 27.0057 119.56 27.0739C119.139 27.142 118.736 27.2045 118.349 27.2614C117.565 27.3864 116.895 27.5795 116.338 27.8409C115.793 28.1023 115.372 28.4432 115.077 28.8636C114.793 29.2727 114.651 29.7614 114.651 30.3295C114.651 31.1932 114.957 31.8523 115.571 32.3068C116.196 32.7614 116.986 32.9886 117.94 32.9886ZM145.673 38.375C143.741 38.375 141.986 37.875 140.406 36.875C138.827 35.875 137.565 34.375 136.622 32.375C135.679 30.375 135.207 27.892 135.207 24.9261C135.207 21.8466 135.696 19.3125 136.673 17.3239C137.651 15.3352 138.929 13.8636 140.509 12.9091C142.099 11.9545 143.81 11.4773 145.639 11.4773C147.014 11.4773 148.19 11.7159 149.168 12.1932C150.145 12.6591 150.952 13.2614 151.588 14C152.224 14.7386 152.707 15.5057 153.037 16.3011H153.207V3.09091H161.543V38H153.293V33.7557H153.037C152.685 34.5625 152.185 35.3182 151.537 36.0227C150.889 36.7273 150.077 37.2955 149.099 37.7273C148.134 38.1591 146.991 38.375 145.673 38.375ZM148.571 31.8807C149.582 31.8807 150.446 31.5966 151.162 31.0284C151.878 30.4489 152.429 29.6364 152.815 28.5909C153.202 27.5455 153.395 26.3182 153.395 24.9091C153.395 23.4773 153.202 22.2443 152.815 21.2102C152.44 20.1761 151.889 19.3807 151.162 18.8239C150.446 18.267 149.582 17.9886 148.571 17.9886C147.537 17.9886 146.662 18.2727 145.946 18.8409C145.23 19.4091 144.685 20.2102 144.31 21.2443C143.946 22.2784 143.764 23.5 143.764 24.9091C143.764 26.3182 143.952 27.5455 144.327 28.5909C144.702 29.6364 145.241 30.4489 145.946 31.0284C146.662 31.5966 147.537 31.8807 148.571 31.8807Z" fill="black"/>
</svg>
